# xmcd
#
# Track frame offsets: 
#        150
#        22077
#        50351
#        81225
#        107645
#        118848
#        143000
#        167069
#        192730
#
# Disc length: 2893 seconds
#
# Revision: 1
# Processed by: cddbd v1.5.2PL0 Copyright (c) Steve Scherf et al.
# Submitted via: ExactAudioCopy v0.99pb5
#
DISCID=7d0b4b09
DTITLE=Mi Solar - Amistad
DYEAR=2008
DGENRE=Salsa
TTITLE0=Dile a Catalina
TTITLE1=Amar de Nuevo
TTITLE2=Tal Como Eres
TTITLE3=Señora
TTITLE4=Mi Solar
TTITLE5=La Isla
TTITLE6=Profundo
TTITLE7=Amistad
TTITLE8=Lágrimas Negras
EXTD=
EXTT0=
EXTT1=
EXTT2=
EXTT3=
EXTT4=
EXTT5=
EXTT6=
EXTT7=
EXTT8=
PLAYORDER=
